<?xml version="1.0" encoding="UTF-8"?>
<!DOCTYPE svg PUBLIC "-//W3C//DTD SVG 1.1//EN"
		"http://www.w3.org/Graphics/SVG/1.1/DTD/svg11.dtd">
<svg version="1.1" id="Layer_1"
		xmlns="http://www.w3.org/2000/svg" xmlns:xlink="http://www.w3.org/1999/xlink" x="0px" y="0px"
		width="1700px" height="1182.8947368421px" viewBox="0 0 268 169.4"
		style="enable-background:new 0 0 228 149.4;" xml:space="preserve"><style type="text/css">
	.st0{opacity:0.39;fill:#FFFFFF;}
	.st1{opacity:0.52;fill:#FFFFFF;}
	.st2{fill:#FFFFFF;}
</style><style type='text/css'>.title{fill:#FFFFFF;}.slogan{fill:#FFFFFF;}</style><style type="text/css">
	.st0{opacity:0.39;fill:#FFFFFF;}
	.st1{opacity:0.52;fill:#FFFFFF;}
	.st2{fill:#FFFFFF;}
</style><g transform="scale(1.3989071038251) translate(40.1421875,3)"><g>
	<polygon class="st0" points="82.7,18.3 79.7,18.3 79.7,3 15,3 15,18.3 12,18.3 12,0 82.7,0 	"/>
	<polygon class="st1" points="76.7,18.3 73.7,18.3 73.7,3 9,3 9,18.3 6,18.3 6,0 76.7,0 	"/>
	<polygon class="st2" points="70.7,18.3 67.7,18.3 67.7,3 3,3 3,18.3 0,18.3 0,0 70.7,0 	"/>
</g>
</g><g transform="scale(1.3989071038251) translate(40.1421875,88.49765625)"><g>
	<polygon class="st0" points="82.7,0 79.7,0 79.7,15.3 15,15.3 15,0 12,0 12,18.3 82.7,18.3 	"/>
	<polygon class="st1" points="76.7,0 73.7,0 73.7,15.3 9,15.3 9,0 6,0 6,18.3 76.7,18.3 	"/>
	<polygon class="st2" points="70.7,0 67.7,0 67.7,15.3 3,15.3 3,0 0,0 0,18.3 70.7,18.3 	"/>
</g>
</g><g transform="scale(0.0475) translate(0, 1738.9473684211)"><path transform="translate(0,0) rotate(180) scale(-1, 1)" d="M298 -11c-81 0 -176 13 -256 47v190c59 -30 168 -68 248 -68c64 0 76 18 76 37c0 38 -37 43 -109 63c-118 35 -219 79 -219 229c0 171 127 229 271 229c74 0 181 -12 258 -44v-186c-39 19 -149 61 -236 61c-73 0 -72 -30 -72 -38c0 -43 49 -49 113 -68 c127 -36 212 -82 212 -220c0 -168 -124 -232 -286 -232z" class='title'/><path transform="translate(617,0) rotate(180) scale(-1, 1)" d="M814 0h-206c-2 53 -4 88 -4 201v123c0 16 3 51 -34 51c-12 0 -24 -3 -42 -15c1 -12 2 -24 2 -37v-323h-204v331c0 11 1 44 -36 44c-9 0 -25 -3 -37 -15v-360h-204v325c0 65 -2 118 -13 195l189 11c5 -27 7 -53 9 -80c31 44 79 80 136 80c54 0 103 -24 132 -78 c35 44 84 78 142 78c69 0 164 -21 164 -189v-126c0 -134 3 -166 6 -216z" class='title'/><path transform="translate(1465,0) rotate(180) scale(-1, 1)" d="M525 0h-193c-2 16 -3 31 -5 45c-20 -26 -59 -56 -130 -56c-105 0 -164 63 -164 160c0 124 96 158 212 158c16 0 37 -1 64 -3v20c0 21 -6 52 -66 52c-49 0 -138 -21 -187 -42v167c70 20 155 30 226 30c141 0 232 -40 232 -206v-151c0 -59 0 -110 11 -174zM268 121 c14 0 29 5 41 14v77c-8 1 -16 1 -23 1c-55 0 -65 -27 -65 -49c0 -23 11 -43 47 -43z" class='title'/><path transform="translate(2026,0) rotate(180) scale(-1, 1)" d="M366 531c9 0 20 0 37 -4v-203c-16 5 -30 6 -44 6c-33 0 -71 -4 -105 -67v-263h-204v304c0 74 -2 136 -16 216l189 11c7 -38 10 -76 12 -115h1c20 63 66 115 130 115z" class='title'/><path transform="translate(2448,0) rotate(180) scale(-1, 1)" d="M286 -11c-92 0 -193 29 -193 192v195h-79v144h79c0 46 -1 93 -10 140l212 11v-151l137 12v-156h-137v-167c0 -50 32 -58 56 -58c20 0 49 9 87 23v-164c-49 -16 -106 -21 -152 -21z" class='title'/><path transform="translate(2917,0) rotate(180) scale(-1, 1)" d="M273 173h265v-173h-479v529l-11 171l225 12v-539z" class='title'/><path transform="translate(3478,0) rotate(180) scale(-1, 1)" d="M153 580c-63 0 -102 28 -102 89s39 88 102 88c66 0 105 -27 105 -88s-39 -89 -105 -89zM47 0v344l-10 176l214 10v-530h-204z" class='title'/><path transform="translate(3777,0) rotate(180) scale(-1, 1)" d="M99 0v376h-86v144h86v32c0 139 69 191 206 191c56 0 100 -8 143 -20v-149c-19 10 -58 22 -90 22c-27 0 -58 -9 -58 -46v-30l130 11v-155h-130v-376h-201z" class='title'/><path transform="translate(4221,0) rotate(180) scale(-1, 1)" d="M489 207l-266 1c6 -58 39 -74 98 -74c60 0 138 21 173 35v-151c-68 -24 -138 -29 -197 -29c-192 0 -276 102 -276 271c0 167 92 271 254 271c139 0 236 -66 236 -218c0 -39 -12 -87 -22 -106zM281 387c-36 0 -53 -23 -58 -79l113 6c-2 58 -24 73 -55 73z" class='title'/></g><g transform="scale(0.0087890625) translate(5461.3333333333, 12743.111111111)"><path transform="translate(0,0) rotate(180) scale(-1, 1)" d="M1141 61c5.33301 -14.667 8.16406 -26.502 8.49707 -35.502s-2.16699 -15.833 -7.5 -20.5s-14.166 -7.66699 -26.499 -9s-28.833 -2 -49.5 -2s-37.167 0.5 -49.5 1.5s-21.666 2.66699 -27.999 5s-11 5.5 -14 9.5s-5.83301 9 -8.5 15l-111 315h-538l-106 -311 c-2 -6 -4.66699 -11.167 -8 -15.5s-8.16602 -8 -14.499 -11s-15.333 -5.16699 -27 -6.5s-26.834 -2 -45.501 -2c-19.333 0 -35.166 0.833008 -47.499 2.5s-21 4.83398 -26 9.50098s-7.33301 11.5 -7 20.5s3.16602 20.833 8.49902 35.5l434 1202 c2.66699 7.33301 6.16699 13.333 10.5 18s10.666 8.33398 18.999 11.001s19 4.5 32 5.5s29.5 1.5 49.5 1.5c21.333 0 39 -0.5 53 -1.5s25.333 -2.83301 34 -5.5s15.334 -6.5 20.001 -11.5s8.33398 -11.167 11.001 -18.5zM583.998 1122h-1l-223 -645h450z" class='slogan'/><path transform="translate(1185,0) rotate(180) scale(-1, 1)" d="M318 25c0 -5.33301 -1.33301 -9.83301 -4 -13.5s-7 -6.83398 -13 -9.50098s-14.333 -4.66699 -25 -6s-24.334 -2 -41.001 -2c-16 0 -29.333 0.666992 -40 2s-19.167 3.33301 -25.5 6s-10.666 5.83398 -12.999 9.50098s-3.5 8.16699 -3.5 13.5v1336 c0 5.33301 1.16699 10 3.5 14s6.66602 7.33301 12.999 10s14.833 4.66699 25.5 6s24 2 40 2c16.667 0 30.334 -0.666992 41.001 -2s19 -3.33301 25 -6s10.333 -6 13 -10s4 -8.66699 4 -14v-1336z" class='slogan'/><path transform="translate(1655,0) rotate(180) scale(-1, 1)" d="M1412 927c0 -4.66699 -0.668945 -10.334 -2.00195 -17.001s-3.66602 -15 -6.99902 -25l-265 -855c-2 -7.33301 -5.16699 -13.333 -9.5 -18s-10.333 -8.33398 -18 -11.001s-18.167 -4.5 -31.5 -5.5s-30 -1.5 -50 -1.5c-20.667 0 -38 0.666992 -52 2 s-25.167 3.33301 -33.5 6s-14.5 6.33398 -18.5 11.001s-7 10.334 -9 17.001l-189 653l-2 9l-2 -9l-175 -653c-2 -7.33301 -5.16699 -13.333 -9.5 -18s-10.833 -8.33398 -19.5 -11.001s-19.834 -4.5 -33.501 -5.5s-30.5 -1.5 -50.5 -1.5c-20.667 0 -37.5 0.666992 -50.5 2 s-23.667 3.33301 -32 6s-14.5 6.33398 -18.5 11.001s-7 10.334 -9 17.001l-263 855c-3.33301 10 -5.66602 18.333 -6.99902 25s-2 12.334 -2 17.001c0 6 1.33301 10.833 4 14.5s7.16699 6.66699 13.5 9s14.833 3.83301 25.5 4.5s23.667 1 39 1c18.667 0 33.667 -0.5 45 -1.5 s20 -2.66699 26 -5s10.333 -5.66602 13 -9.99902s5 -9.5 7 -15.5l217 -742l2 -9l2 9l199 742c1.33301 6 3.5 11.167 6.5 15.5s7.5 7.66602 13.5 9.99902s14.167 4 24.5 5s23.833 1.5 40.5 1.5c16 0 29.167 -0.5 39.5 -1.5s18.5 -2.66699 24.5 -5s10.333 -5.5 13 -9.5 s4.66699 -8.66699 6 -14l215 -744l2 -9l1 9l214 742c1.33301 6 3.5 11.167 6.5 15.5s7.66699 7.66602 14 9.99902s15 4 26 5s25.167 1.5 42.5 1.5c16 0 28.833 -0.333008 38.5 -1s17.334 -2.33398 23.001 -5.00098s9.66699 -5.66699 12 -9s3.5 -8 3.5 -14z" class='slogan'/><path transform="translate(3119,0) rotate(180) scale(-1, 1)" d="M831 24c0 -8 -2.6748 -14.002 -8.00781 -18.002s-12.666 -7 -21.999 -9s-23 -3 -41 -3c-17.333 0 -31.166 1 -41.499 3s-17.833 5 -22.5 9s-7 10 -7 18v90c-39.333 -42 -83.166 -74.667 -131.499 -98s-99.5 -35 -153.5 -35c-47.333 0 -90.166 6.16699 -128.499 18.5 s-71 30.166 -98 53.499s-48 52 -63 86s-22.5 72.667 -22.5 116c0 50.667 10.333 94.667 31 132s50.334 68.333 89.001 93s86 43.167 142 55.5s119 18.5 189 18.5h124v70c0 34.667 -3.66699 65.334 -11 92.001s-19.166 48.834 -35.499 66.501s-37.5 31 -63.5 40 s-58 13.5 -96 13.5c-40.667 0 -77.167 -4.83301 -109.5 -14.5s-60.666 -20.334 -84.999 -32.001s-44.666 -22.334 -60.999 -32.001s-28.5 -14.5 -36.5 -14.5c-5.33301 0 -10 1.33301 -14 4s-7.5 6.66699 -10.5 12s-5.16699 12.166 -6.5 20.499s-2 17.5 -2 27.5 c0 16.667 1.16699 29.834 3.5 39.501s8 18.834 17 27.501s24.5 18.834 46.5 30.501s47.333 22.334 76 32.001s60 17.667 94 24s68.333 9.5 103 9.5c64.667 0 119.667 -7.33301 165 -22s82 -36.167 110 -64.5s48.333 -63.5 61 -105.5s19 -91 19 -147v-607zM666.992 434.998 l-141.001 0.000976562c-45.333 0 -84.666 -3.83301 -117.999 -11.5s-61 -19 -83 -34s-38.167 -33 -48.5 -54s-15.5 -45.167 -15.5 -72.5c0 -46.667 14.833 -83.834 44.5 -111.501s71.167 -41.5 124.5 -41.5c43.333 0 83.5 11 120.5 33s75.833 55.667 116.5 101v191z" class='slogan'/><path transform="translate(4100,0) rotate(180) scale(-1, 1)" d="M563 0l-119.998 -331.001c-4 -10.667 -14.167 -18.834 -30.5 -24.501s-41.166 -8.5 -74.499 -8.5c-17.333 0 -31.333 0.833008 -42 2.5s-18.834 4.5 -24.501 8.5s-8.83398 9.33301 -9.50098 16s1 14.667 5 24l124 313c-6 2.66699 -11.667 7 -17 13s-9 12.333 -11 19 l-321 860c-5.33301 14 -8 25 -8 33s2.66699 14.333 8 19s14 7.83398 26 9.50098s28 2.5 48 2.5s35.667 -0.5 47 -1.5s20.333 -2.83301 27 -5.5s11.5 -6.5 14.5 -11.5s6.16699 -11.833 9.5 -20.5l257 -722h3l248 726c4 12.667 8.83301 20.834 14.5 24.501 s14.167 6.33398 25.5 8.00098s27.666 2.5 48.999 2.5c18.667 0 34 -0.833008 46 -2.5s20.833 -4.83398 26.5 -9.50098s8.5 -11 8.5 -19s-2 -18 -6 -30z" class='slogan'/><path transform="translate(5027,0) rotate(180) scale(-1, 1)" d="M718 270c0 -46 -8.50293 -86.9951 -25.5029 -122.995s-41.167 -66.333 -72.5 -91s-68.666 -43.334 -111.999 -56.001s-91 -19 -143 -19c-32 0 -62.5 2.5 -91.5 7.5s-55 11.333 -78 19s-42.5 15.667 -58.5 24s-27.667 15.833 -35 22.5s-12.666 16 -15.999 28 s-5 28.333 -5 49c0 12.667 0.666992 23.334 2 32.001s3 15.667 5 21s4.83301 9.16602 8.5 11.499s7.83398 3.5 12.501 3.5c7.33301 0 18.166 -4.5 32.499 -13.5s32 -18.833 53 -29.5s45.833 -20.5 74.5 -29.5s61.667 -13.5 99 -13.5c28 0 53.333 3 76 9 s42.334 14.833 59.001 26.5s29.5 26.5 38.5 44.5s13.5 39.333 13.5 64c0 25.333 -6.5 46.666 -19.5 63.999s-30.167 32.666 -51.5 45.999s-45.333 25.166 -72 35.499l-82.5 32.5c-28.333 11.333 -56 24.166 -83 38.499s-51.167 31.833 -72.5 52.5s-38.5 45.334 -51.5 74.001 s-19.5 63 -19.5 103c0 35.333 6.83301 69.166 20.5 101.499s34.167 60.666 61.5 84.999s61.5 43.833 102.5 58.5s88.833 22 143.5 22c24 0 48 -2 72 -6s45.667 -9 65 -15s35.833 -12.5 49.5 -19.5s24 -13.167 31 -18.5s11.667 -10 14 -14s4 -8.5 5 -13.5s2 -11.167 3 -18.5 s1.5 -16.333 1.5 -27c0 -11.333 -0.5 -21.166 -1.5 -29.499s-2.66699 -15.166 -5 -20.499s-5.16602 -9.16602 -8.49902 -11.499s-7 -3.5 -11 -3.5c-6 0 -14.667 3.66699 -26 11s-26 15.166 -44 23.499s-39.167 16.166 -63.5 23.499s-52.166 11 -83.499 11 c-28 0 -52.667 -3.16699 -74 -9.5s-38.833 -15.333 -52.5 -27s-24 -25.5 -31 -41.5s-10.5 -33.333 -10.5 -52c0 -26 6.66699 -47.833 20 -65.5s30.666 -33.167 51.999 -46.5s45.666 -25.333 72.999 -36l83.5 -33c28.333 -11.333 56.333 -24 84 -38s52.167 -31 73.5 -51 s38.5 -44 51.5 -72s19.5 -61.333 19.5 -100z" class='slogan'/><path transform="translate(6291,0) rotate(180) scale(-1, 1)" d="M344 26c0 -5.33301 -1.33203 -10 -3.99902 -14s-7.33398 -7.16699 -14.001 -9.5s-15.5 -4.33301 -26.5 -6s-24.833 -2.5 -41.5 -2.5c-16 0 -29.667 0.833008 -41 2.5s-20.333 3.66699 -27 6s-11.334 5.5 -14.001 9.5s-4 8.66699 -4 14v1242c0 5.33301 1.5 10 4.5 14 s8 7.16699 15 9.5s16 4.33301 27 6s24.167 2.5 39.5 2.5c16.667 0 30.5 -0.833008 41.5 -2.5s19.833 -3.66699 26.5 -6s11.334 -5.5 14.001 -9.5s4 -8.66699 4 -14v-1242z" class='slogan'/><path transform="translate(6807,0) rotate(180) scale(-1, 1)" d="M928 25c0 -5.33301 -1.33301 -9.83203 -4 -13.499s-7 -6.83398 -13 -9.50098s-14.333 -4.66699 -25 -6s-24 -2 -40 -2c-16.667 0 -30.334 0.666992 -41.001 2s-19 3.33301 -25 6s-10.333 5.83398 -13 9.50098s-4 8.16699 -4 13.5v527c0 51.333 -4 92.666 -12 123.999 s-19.667 58.333 -35 81s-35.166 40 -59.499 52s-52.5 18 -84.5 18c-41.333 0 -82.666 -14.667 -123.999 -44s-84.666 -72.333 -129.999 -129v-629c0 -5.33301 -1.33301 -9.83301 -4 -13.5s-7 -6.83398 -13 -9.50098s-14.333 -4.66699 -25 -6s-24.334 -2 -41.001 -2 c-16 0 -29.333 0.666992 -40 2s-19.167 3.33301 -25.5 6s-10.666 5.83398 -12.999 9.50098s-3.5 8.16699 -3.5 13.5v900c0 5.33301 1 9.83301 3 13.5s6 7 12 10s13.667 5 23 6s21.666 1.5 36.999 1.5c14.667 0 26.834 -0.5 36.501 -1.5s17.167 -3 22.5 -6 s9.16602 -6.33301 11.499 -10s3.5 -8.16699 3.5 -13.5v-119c50.667 56.667 101.167 98.167 151.5 124.5s101.166 39.5 152.499 39.5c60 0 110.5 -10.167 151.5 -30.5s74.167 -47.5 99.5 -81.5s43.5 -73.833 54.5 -119.5s16.5 -100.5 16.5 -164.5v-549z" class='slogan'/><path transform="translate(7883,0) rotate(180) scale(-1, 1)" d="M928 25c0 -5.33301 -1.33301 -9.83203 -4 -13.499s-7 -6.83398 -13 -9.50098s-14.333 -4.66699 -25 -6s-24 -2 -40 -2c-16.667 0 -30.334 0.666992 -41.001 2s-19 3.33301 -25 6s-10.333 5.83398 -13 9.50098s-4 8.16699 -4 13.5v527c0 51.333 -4 92.666 -12 123.999 s-19.667 58.333 -35 81s-35.166 40 -59.499 52s-52.5 18 -84.5 18c-41.333 0 -82.666 -14.667 -123.999 -44s-84.666 -72.333 -129.999 -129v-629c0 -5.33301 -1.33301 -9.83301 -4 -13.5s-7 -6.83398 -13 -9.50098s-14.333 -4.66699 -25 -6s-24.334 -2 -41.001 -2 c-16 0 -29.333 0.666992 -40 2s-19.167 3.33301 -25.5 6s-10.666 5.83398 -12.999 9.50098s-3.5 8.16699 -3.5 13.5v900c0 5.33301 1 9.83301 3 13.5s6 7 12 10s13.667 5 23 6s21.666 1.5 36.999 1.5c14.667 0 26.834 -0.5 36.501 -1.5s17.167 -3 22.5 -6 s9.16602 -6.33301 11.499 -10s3.5 -8.16699 3.5 -13.5v-119c50.667 56.667 101.167 98.167 151.5 124.5s101.166 39.5 152.499 39.5c60 0 110.5 -10.167 151.5 -30.5s74.167 -47.5 99.5 -81.5s43.5 -73.833 54.5 -119.5s16.5 -100.5 16.5 -164.5v-549z" class='slogan'/><path transform="translate(8959,0) rotate(180) scale(-1, 1)" d="M990 485c0 -73.333 -9.66699 -140.834 -29 -202.501s-48.166 -114.834 -86.499 -159.501s-86.333 -79.5 -144 -104.5s-124.5 -37.5 -200.5 -37.5c-74 0 -138.5 11 -193.5 33s-100.833 54 -137.5 96s-64 93 -82 153s-27 128 -27 204c0 73.333 9.5 140.833 28.5 202.5 s47.667 114.834 86 159.501s86.166 79.334 143.499 104.001s124.333 37 201 37c74 0 138.5 -11 193.5 -33s100.833 -54 137.5 -96s64.167 -93 82.5 -153s27.5 -127.667 27.5 -203zM816 473.999c0 48.667 -4.50098 94.666 -13.501 137.999s-23.833 81.333 -44.5 114 s-48.667 58.5 -84 77.5s-79.333 28.5 -132 28.5c-48.667 0 -90.5 -8.66699 -125.5 -26s-63.833 -41.833 -86.5 -73.5s-39.5 -69.167 -50.5 -112.5s-16.5 -90.666 -16.5 -141.999c0 -49.333 4.5 -95.666 13.5 -138.999s24 -81.166 45 -113.499s49.167 -58 84.5 -77 s79.333 -28.5 132 -28.5c48 0 89.667 8.66699 125 26s64.333 41.666 87 72.999s39.334 68.666 50.001 111.999s16 91 16 143z" class='slogan'/><path transform="translate(10039,0) rotate(180) scale(-1, 1)" d="M891 927c0 -2.66699 -0.162109 -5.49902 -0.495117 -8.49902s-0.833008 -6.16699 -1.5 -9.5s-1.5 -7 -2.5 -11s-2.16699 -8.33301 -3.5 -13l-307 -855c-2.66699 -7.33301 -6.16699 -13.333 -10.5 -18s-10.833 -8.33398 -19.5 -11.001s-19.667 -4.5 -33 -5.5 s-30 -1.5 -50 -1.5s-36.667 0.666992 -50 2s-24.166 3.33301 -32.499 6s-14.833 6.33398 -19.5 11.001s-8.33398 10.334 -11.001 17.001l-306 855c-2.66699 8 -4.83398 15 -6.50098 21s-2.66699 10.5 -3 13.5s-0.5 5.5 -0.5 7.5c0 5.33301 1.33301 10 4 14 s7.16699 7.16699 13.5 9.5s14.666 3.83301 24.999 4.5s23.166 1 38.499 1c19.333 0 34.833 -0.5 46.5 -1.5s20.667 -2.83301 27 -5.5s11 -6 14 -10s5.83301 -9 8.5 -15l254 -742l4 -12l3 12l251 742c1.33301 6 3.66602 11 6.99902 15s8.16602 7.33301 14.499 10 s15 4.5 26 5.5s25.5 1.5 43.5 1.5c15.333 0 28 -0.333008 38 -1s17.833 -2.33398 23.5 -5.00098s9.66699 -5.83398 12 -9.50098s3.5 -8.16699 3.5 -13.5z" class='slogan'/><path transform="translate(10964,0) rotate(180) scale(-1, 1)" d="M831 24c0 -8 -2.6748 -14.002 -8.00781 -18.002s-12.666 -7 -21.999 -9s-23 -3 -41 -3c-17.333 0 -31.166 1 -41.499 3s-17.833 5 -22.5 9s-7 10 -7 18v90c-39.333 -42 -83.166 -74.667 -131.499 -98s-99.5 -35 -153.5 -35c-47.333 0 -90.166 6.16699 -128.499 18.5 s-71 30.166 -98 53.499s-48 52 -63 86s-22.5 72.667 -22.5 116c0 50.667 10.333 94.667 31 132s50.334 68.333 89.001 93s86 43.167 142 55.5s119 18.5 189 18.5h124v70c0 34.667 -3.66699 65.334 -11 92.001s-19.166 48.834 -35.499 66.501s-37.5 31 -63.5 40 s-58 13.5 -96 13.5c-40.667 0 -77.167 -4.83301 -109.5 -14.5s-60.666 -20.334 -84.999 -32.001s-44.666 -22.334 -60.999 -32.001s-28.5 -14.5 -36.5 -14.5c-5.33301 0 -10 1.33301 -14 4s-7.5 6.66699 -10.5 12s-5.16699 12.166 -6.5 20.499s-2 17.5 -2 27.5 c0 16.667 1.16699 29.834 3.5 39.501s8 18.834 17 27.501s24.5 18.834 46.5 30.501s47.333 22.334 76 32.001s60 17.667 94 24s68.333 9.5 103 9.5c64.667 0 119.667 -7.33301 165 -22s82 -36.167 110 -64.5s48.333 -63.5 61 -105.5s19 -91 19 -147v-607zM666.992 434.998 l-141.001 0.000976562c-45.333 0 -84.666 -3.83301 -117.999 -11.5s-61 -19 -83 -34s-38.167 -33 -48.5 -54s-15.5 -45.167 -15.5 -72.5c0 -46.667 14.833 -83.834 44.5 -111.501s71.167 -41.5 124.5 -41.5c43.333 0 83.5 11 120.5 33s75.833 55.667 116.5 101v191z" class='slogan'/><path transform="translate(11945,0) rotate(180) scale(-1, 1)" d="M621 91c0 -19.333 -1.33301 -34.667 -4 -46s-6.66699 -19.666 -12 -24.999s-13.333 -10.333 -24 -15s-22.834 -8.5 -36.501 -11.5s-28.167 -5.5 -43.5 -7.5s-30.666 -3 -45.999 -3c-46.667 0 -86.667 6.16699 -120 18.5s-60.666 31 -81.999 56s-36.833 56.667 -46.5 95 s-14.5 83.5 -14.5 135.5v526h-126c-10 0 -18 5.33301 -24 16s-9 28 -9 52c0 12.667 0.833008 23.334 2.5 32.001s3.83398 15.834 6.50098 21.501s6.16699 9.66699 10.5 12s9.16602 3.5 14.499 3.5h125v214c0 4.66699 1.16699 9 3.5 13s6.66602 7.5 12.999 10.5 s14.833 5.16699 25.5 6.5s24 2 40 2c16.667 0 30.334 -0.666992 41.001 -2s19 -3.5 25 -6.5s10.333 -6.5 13 -10.5s4 -8.33301 4 -13v-214h231c5.33301 0 10 -1.16699 14 -3.5s7.5 -6.33301 10.5 -12s5.16699 -12.834 6.5 -21.501s2 -19.334 2 -32.001 c0 -24 -3 -41.333 -9 -52s-14 -16 -24 -16h-231v-502c0 -62 9.16699 -108.833 27.5 -140.5s51.166 -47.5 98.499 -47.5c15.333 0 29 1.5 41 4.5s22.667 6.16699 32 9.5s17.333 6.5 24 9.5s12.667 4.5 18 4.5c3.33301 0 6.5 -0.833008 9.5 -2.5s5.33301 -4.83398 7 -9.50098 s3.16699 -11 4.5 -19s2 -18 2 -30z" class='slogan'/><path transform="translate(12631,0) rotate(180) scale(-1, 1)" d="M318 25c0 -5.33301 -1.33301 -9.83301 -4 -13.5s-7 -6.83398 -13 -9.50098s-14.333 -4.66699 -25 -6s-24.334 -2 -41.001 -2c-16 0 -29.333 0.666992 -40 2s-19.167 3.33301 -25.5 6s-10.666 5.83398 -12.999 9.50098s-3.5 8.16699 -3.5 13.5v900 c0 4.66699 1.16699 9 3.5 13s6.66602 7.33301 12.999 10s14.833 4.66699 25.5 6s24 2 40 2c16.667 0 30.334 -0.666992 41.001 -2s19 -3.33301 25 -6s10.333 -6 13 -10s4 -8.33301 4 -13v-900zM337 1229c0 -38.667 -7.33301 -65 -22 -79s-41.667 -21 -81 -21 c-38.667 0 -65.167 6.83301 -79.5 20.5s-21.5 39.5 -21.5 77.5c0 38.667 7.33301 65 22 79s41.667 21 81 21c38.667 0 65.167 -6.83301 79.5 -20.5s21.5 -39.5 21.5 -77.5z" class='slogan'/><path transform="translate(13101,0) rotate(180) scale(-1, 1)" d="M928 25c0 -5.33301 -1.33301 -9.83203 -4 -13.499s-7 -6.83398 -13 -9.50098s-14.333 -4.66699 -25 -6s-24 -2 -40 -2c-16.667 0 -30.334 0.666992 -41.001 2s-19 3.33301 -25 6s-10.333 5.83398 -13 9.50098s-4 8.16699 -4 13.5v527c0 51.333 -4 92.666 -12 123.999 s-19.667 58.333 -35 81s-35.166 40 -59.499 52s-52.5 18 -84.5 18c-41.333 0 -82.666 -14.667 -123.999 -44s-84.666 -72.333 -129.999 -129v-629c0 -5.33301 -1.33301 -9.83301 -4 -13.5s-7 -6.83398 -13 -9.50098s-14.333 -4.66699 -25 -6s-24.334 -2 -41.001 -2 c-16 0 -29.333 0.666992 -40 2s-19.167 3.33301 -25.5 6s-10.666 5.83398 -12.999 9.50098s-3.5 8.16699 -3.5 13.5v900c0 5.33301 1 9.83301 3 13.5s6 7 12 10s13.667 5 23 6s21.666 1.5 36.999 1.5c14.667 0 26.834 -0.5 36.501 -1.5s17.167 -3 22.5 -6 s9.16602 -6.33301 11.499 -10s3.5 -8.16699 3.5 -13.5v-119c50.667 56.667 101.167 98.167 151.5 124.5s101.166 39.5 152.499 39.5c60 0 110.5 -10.167 151.5 -30.5s74.167 -47.5 99.5 -81.5s43.5 -73.833 54.5 -119.5s16.5 -100.5 16.5 -164.5v-549z" class='slogan'/><path transform="translate(14177,0) rotate(180) scale(-1, 1)" d="M905 884c0 -23.333 -3.16406 -40.1719 -9.49707 -50.5049s-14.5 -15.5 -24.5 -15.5h-129c23.333 -24 39.666 -50.5 48.999 -79.5s14 -59.167 14 -90.5c0 -52 -8.33301 -98 -25 -138s-40.5 -73.833 -71.5 -101.5s-67.833 -48.834 -110.5 -63.501s-90 -22 -142 -22 c-36.667 0 -71.5 4.83301 -104.5 14.5s-58.5 21.834 -76.5 36.501c-12 -12 -21.833 -25.667 -29.5 -41s-11.5 -33 -11.5 -53c0 -23.333 10.833 -42.666 32.5 -57.999s50.5 -23.666 86.5 -24.999l235 -10c44.667 -1.33301 85.667 -7.5 123 -18.5s69.666 -26.667 96.999 -47 s48.666 -45.333 63.999 -75s23 -64.167 23 -103.5c0 -41.333 -8.66699 -80.666 -26 -117.999s-43.833 -70.166 -79.5 -98.499s-81.167 -50.666 -136.5 -66.999s-120.666 -24.5 -195.999 -24.5c-72.667 0 -134.5 6.16699 -185.5 18.5s-92.833 29.166 -125.5 50.499 s-56.334 46.833 -71.001 76.5s-22 61.834 -22 96.501c0 22 2.66699 43.333 8 64s13.5 40.334 24.5 59.001s24.667 36.5 41 53.5s35.166 33.833 56.499 50.5c-32.667 16.667 -56.834 37.667 -72.501 63s-23.5 52.666 -23.5 81.999c0 40.667 8.33301 77 25 109 s37.334 60.667 62.001 86c-20.667 24.667 -37 52.5 -49 83.5s-18 68.5 -18 112.5c0 51.333 8.66699 97.333 26 138s41.333 75 72 103s67.5 49.5 110.5 64.5s89.833 22.5 140.5 22.5c27.333 0 52.833 -1.5 76.5 -4.5s45.834 -7.16699 66.501 -12.5h272 c11.333 0 19.833 -5.5 25.5 -16.5s8.5 -27.833 8.5 -50.5zM647.003 646.994c0 61.333 -16.833 109.169 -50.5 143.502s-81.5 51.5 -143.5 51.5c-32 0 -59.833 -5.33301 -83.5 -16s-43.334 -25.334 -59.001 -44.001s-27.334 -40.167 -35.001 -64.5s-11.5 -49.833 -11.5 -76.5 c0 -59.333 16.833 -106 50.5 -140s80.834 -51 141.501 -51c32.667 0 61 5.16699 85 15.5s43.833 24.666 59.5 42.999s27.334 39.5 35.001 63.5s11.5 49 11.5 75zM730.003 -66.0029c0 38.667 -15.834 68.498 -47.501 89.498s-74.5 32.167 -128.5 33.5l-233 8 c-21.333 -16.667 -38.833 -32.5 -52.5 -47.5s-24.5 -29.333 -32.5 -43s-13.5 -27.167 -16.5 -40.5s-4.5 -27 -4.5 -41c0 -43.333 22 -76.166 66 -98.499s105.333 -33.5 184 -33.5c50 0 91.833 4.83301 125.5 14.5s60.834 22.5 81.501 38.5s35.5 34.333 44.5 55 s13.5 42.334 13.5 65.001z" class='slogan'/></g></svg>